<svg preserveAspectRatio="xMidYMid meet" viewBox="0 0 14 14" fill="none" xmlns="http://www.w3.org/2000/svg" aria-hidden="true">
  <g id="Vector">
    <path
      d="M7.56001 11.2L8.925 7H14C14 8.85652 13.2625 10.637 11.9498 11.9497C10.637 13.2625 8.85652 14 7 14C5.14348 14 3.36299 13.2625 2.05024 11.9497C0.737485 10.637 0 8.85652 0 7C0 5.14348 0.737485 3.36301 2.05024 2.05025C3.36299 0.737498 5.14348 1.2528e-10 7 1.2528e-10C7.73445 -4.38153e-06 8.46435 0.115346 9.163 0.341833L7.56818 5.25H2.90966L2.34034 7H7L5.63501 11.2H7.56001Z"
      fill="#878787"
    />
    <path
      d="M9.49318 5.25L10.829 1.141C12.2898 2.09549 13.342 3.56072 13.7795 5.25H9.49318Z"
      fill="#878787"
    />
  </g>
</svg>
