<svg preserveAspectRatio="none" width="100%" height="100%" overflow="visible" style="display: block;" viewBox="0 0 14 14" fill="none" xmlns="http://www.w3.org/2000/svg">
<path id="Vector" fill-rule="evenodd" clip-rule="evenodd" d="M8.59708 0.693364C7.73304 -0.231122 6.26696 -0.231121 5.40292 0.693364L5.37769 0.720357C4.94674 1.18145 4.33754 1.43379 3.70677 1.41247L3.66984 1.41123C2.40516 1.36849 1.36849 2.40516 1.41123 3.66984L1.41247 3.70677C1.43379 4.33754 1.18145 4.94674 0.720357 5.37769L0.693364 5.40292C-0.231122 6.26696 -0.231121 7.73304 0.693364 8.59708L0.720357 8.62231C1.18145 9.05326 1.43379 9.66246 1.41247 10.2932L1.41123 10.3302C1.36849 11.5948 2.40516 12.6315 3.66984 12.5888L3.70677 12.5875C4.33754 12.5662 4.94674 12.8185 5.37769 13.2796L5.40292 13.3066C6.26696 14.2311 7.73304 14.2311 8.59708 13.3066L8.62231 13.2796C9.05326 12.8185 9.66246 12.5662 10.2932 12.5875L10.3302 12.5888C11.5948 12.6315 12.6315 11.5948 12.5888 10.3302L12.5875 10.2932C12.5662 9.66246 12.8185 9.05326 13.2796 8.62231L13.3066 8.59708C14.2311 7.73304 14.2311 6.26696 13.3066 5.40292L13.2796 5.37769C12.8185 4.94674 12.5662 4.33754 12.5875 3.70677L12.5888 3.66984C12.6315 2.40516 11.5948 1.36849 10.3302 1.41123L10.2932 1.41247C9.66246 1.43379 9.05326 1.18145 8.62231 0.720357L8.59708 0.693364ZM6.3 10.15L10.85 5.6L9.8 4.55L6.30734 8.05L4.2 5.95L3.15 7L6.3 10.15Z" fill="#3BB300"/>
</svg>
