<svg preserveAspectRatio="none" width="100%" height="100%" overflow="visible" style="display: block;" viewBox="0 0 12 12" fill="none" xmlns="http://www.w3.org/2000/svg">
<path id="Vector" d="M7.91257 11.9944C8.0593 11.5846 8.02362 11.1149 7.78827 10.6745C7.52956 10.1904 7.22129 9.89296 6.92393 9.60602C6.5251 9.22117 6.14589 8.85525 5.93221 8.0834C5.93221 8.0834 4.21319 9.42752 4.04137 10.6745C3.977 11.1417 3.98078 11.6042 4.10264 12C0.028152 11.2895 -1.10976 7.6656 1.13181 4.0417C1.46145 4.93493 1.98085 5.60988 2.68999 6.06655C3.0728 3.66962 4.26435 1.63044 7 0C7.26167 2.31497 8.17771 3.68946 9.00832 4.89589C9.67576 4.48129 10.1537 3.89841 10.2794 3.03128C12.502 5.49419 12.4651 8.77607 10.7781 10.6095C10.0551 11.3952 9.00284 11.8072 7.91257 11.9944Z" fill="white"/>
</svg>
