<svg preserveAspectRatio="none" width="100%" height="100%" overflow="visible" style="display: block;" viewBox="0 0 14 14" fill="none" xmlns="http://www.w3.org/2000/svg">
<path id="Vector" d="M7 0C10.866 0 14 3.13401 14 7C14 10.866 10.866 14 7 14C3.13401 14 0 10.866 0 7C0 3.13401 3.13401 0 7 0ZM6.72754 3C6.66523 2.99985 6.60475 3.02258 6.55859 3.06445C6.51242 3.10638 6.48337 3.16447 6.47754 3.22656L6.00195 7.42969C5.97395 7.86269 6.22246 8.28615 6.64746 8.45215L9.85156 9.66211C9.92017 9.68872 9.9965 9.68884 10.0654 9.66309C10.1342 9.63734 10.1913 9.58738 10.2256 9.52246L10.5117 8.98535C10.5464 8.91952 10.5556 8.84258 10.5371 8.77051C10.5186 8.69853 10.4741 8.63572 10.4121 8.59473L7.99512 6.88086L7.52344 3.22656V3.22461C7.51715 3.1629 7.4875 3.10597 7.44141 3.06445C7.39529 3.02295 7.33547 2.9998 7.27344 3H6.72754Z" fill="#878787"/>
</svg>
