<svg preserveAspectRatio="none" width="100%" height="100%" overflow="visible" style="display: block;" viewBox="0 0 24 24" fill="none" xmlns="http://www.w3.org/2000/svg">
<path id="Vector" d="M12 0C18.6274 0 24 5.37258 24 12C24 18.6274 18.6274 24 12 24C5.37258 24 0 18.6274 0 12C0 5.37258 5.37258 0 12 0ZM9 10.7998V12H9.59961C10.2624 12 10.7998 12.5375 10.7998 13.2002V16.7998C10.7998 18.1253 11.8747 19.2002 13.2002 19.2002H15V18H14.4004C13.7376 18 13.2002 17.4625 13.2002 16.7998V9.59961L9 10.7998ZM11.4004 3.59961C10.4063 3.59961 9.59961 4.40628 9.59961 5.40039C9.59982 6.39432 10.4064 7.2002 11.4004 7.2002C12.3942 7.19998 13.2 6.39419 13.2002 5.40039C13.2002 4.40641 12.3943 3.59982 11.4004 3.59961Z" fill="var(--fill-0, white)"/>
</svg>
