<svg preserveAspectRatio="none" width="100%" height="100%" overflow="visible" style="display: block;" viewBox="0 0 11.6667 11.6667" fill="none" xmlns="http://www.w3.org/2000/svg">
<path id="Vector" fill-rule="evenodd" clip-rule="evenodd" d="M7.16424 0.577804C6.4442 -0.192601 5.22247 -0.192601 4.50243 0.577804L4.48141 0.600298C4.12228 0.984543 3.61462 1.19483 3.08897 1.17706L3.0582 1.17602C2.0043 1.14041 1.14041 2.0043 1.17602 3.0582L1.17706 3.08897C1.19483 3.61462 0.984543 4.12228 0.600298 4.48141L0.577804 4.50243C-0.192601 5.22247 -0.192601 6.4442 0.577804 7.16424L0.600298 7.18526C0.984543 7.54438 1.19483 8.05205 1.17706 8.57769L1.17602 8.60846C1.14041 9.66236 2.0043 10.5263 3.0582 10.4906L3.08897 10.4896C3.61462 10.4718 4.12228 10.6821 4.48141 11.0664L4.50243 11.0889C5.22247 11.8593 6.4442 11.8593 7.16424 11.0889L7.18526 11.0664C7.54438 10.6821 8.05205 10.4718 8.57769 10.4896L8.60846 10.4906C9.66236 10.5263 10.5263 9.66236 10.4906 8.60846L10.4896 8.57769C10.4718 8.05205 10.6821 7.54438 11.0664 7.18526L11.0889 7.16424C11.8593 6.4442 11.8593 5.22247 11.0889 4.50243L11.0664 4.48141C10.6821 4.12228 10.4718 3.61462 10.4896 3.08897L10.4906 3.0582C10.5263 2.0043 9.66236 1.14041 8.60846 1.17602L8.57769 1.17706C8.05205 1.19483 7.54438 0.984543 7.18526 0.600298L7.16424 0.577804ZM5.25 8.45833L9.04167 4.66667L8.16667 3.79167L5.25612 6.70833L3.5 4.95833L2.625 5.83333L5.25 8.45833Z" fill="var(--fill-0, #3BB300)"/>
</svg>
